<?xml version="1.0" encoding="UTF-8" standalone="no"?>
<svg
   xmlns:dc="http://purl.org/dc/elements/1.1/"
   xmlns:cc="http://creativecommons.org/ns#"
   xmlns:rdf="http://www.w3.org/1999/02/22-rdf-syntax-ns#"
   xmlns:svg="http://www.w3.org/2000/svg"
   xmlns="http://www.w3.org/2000/svg"
   xmlns:xlink="http://www.w3.org/1999/xlink"
   xmlns:sodipodi="http://sodipodi.sourceforge.net/DTD/sodipodi-0.dtd"
   xmlns:inkscape="http://www.inkscape.org/namespaces/inkscape"
   id="svg17"
   width="395"
   height="370"
   y="-300"
   x="-300"
   version="1.1"
   sodipodi:docname="Fire_triangle3.svg"
   inkscape:version="0.92.1 r15371">
  <metadata
     id="metadata21">
    <rdf:RDF>
      <cc:Work
         rdf:about="">
        <dc:format>image/svg+xml</dc:format>
        <dc:type
           rdf:resource="http://purl.org/dc/dcmitype/StillImage" />
        <dc:title></dc:title>
      </cc:Work>
    </rdf:RDF>
  </metadata>
  <sodipodi:namedview
     pagecolor="#ffffff"
     bordercolor="#666666"
     borderopacity="1"
     objecttolerance="10"
     gridtolerance="10"
     guidetolerance="10"
     inkscape:pageopacity="0"
     inkscape:pageshadow="2"
     inkscape:window-width="1052"
     inkscape:window-height="728"
     id="namedview19"
     showgrid="false"
     showguides="true"
     inkscape:guide-bbox="true"
     inkscape:zoom="2"
     inkscape:cx="55.671875"
     inkscape:cy="-38.281579"
     inkscape:window-x="0"
     inkscape:window-y="27"
     inkscape:window-maximized="0"
     inkscape:current-layer="fuel">
    <sodipodi:guide
       position="180.08475,-69.872881"
       orientation="0,1"
       id="guide23"
       inkscape:locked="false" />
  </sodipodi:namedview>
  <defs
     id="defs">
    <path
       id="bar"
       style="stroke:none;fill-opacity:1"
       d="M 284.12572,532.21731 L 154.95134,532.21731 L           180.36807,517.54302 L 258.70900,517.54302 L 284.12572,532.21731           z " />
  </defs>
  <g
     id="Fire triangle"
     transform="matrix(2,0,0,2,-20,-50)">
    <g
       id="fire">
      <path
         id="fire:red"
         style="fill:#a90000;stroke:none"
         d="m 94.98592,160.42147 v 0 c -9.373888,0.33121 -21.128808,-5.64205 -21.531288,-19.45496 -0.31365,-10.76297 -5.27748,-15.1516 -5.27748,-15.1516 7.68573,-0.89527 7.38783,4.32983 9.44892,4.30335 0,0 1.83297,-9.08742 -1.78667,-13.35738 7.046,-0.81638 7.9897,7.47421 8.98655,5.67997 0.08262,-2.20057 1.51603,-11.95803 -3.30659,-18.08221 0,0 4.02447,0.0599 10.48366,6.53049 -0.75275,-3.89023 -1.37285,-11.63058 5.589768,-22.47575 0.12921,3.71928 1.0118,11.65079 3.87881,16.78971 3.48644,6.24912 0.67811,13.63183 3.50139,13.93084 2.26042,0.23941 4.08314,-11.57598 4.49515,-14.93677 2.57832,0.26001 1.11454,19.5284 3.56583,20.65493 2.02655,0.93149 4.32242,-6.78752 5.58593,-9.99847 0.63498,-1.61364 2.7614,13.03659 -0.59548,18.51791 -2.35727,3.8491 5.34532,-3.22679 11.74472,-2.85462 -3.14895,1.89585 -5.96749,7.79658 -7.25977,17.11875 -0.61817,4.45988 -8.66396,13.17079 -19.1654,12.88359 -5.1254,-0.1402 -7.76004,0.10152 -8.35805,-0.0978 z"
         inkscape:connector-curvature="0" />
      <path
         id="fire:yellow"
         style="fill:#efc517;stroke:none"
         d="m 101.65545,160.68084 c 1.76256,-0.14685 11.45659,-5.18973 10.67323,-12.53367 0,0 -2.39898,1.86047 -5.18975,1.17501 1.46882,-2.44802 7.53984,-11.8483 4.60228,-15.03065 0,0 -5.8752,7.93149 -6.75647,6.60954 -0.88127,-1.32189 1.71359,-12.09309 0.24477,-14.05146 0,0 -3.13338,7.73565 -4.1616,7.09915 -1.7136,-1.02814 -3.28026,-10.86913 -3.81884,-12.14203 0,0 -0.29373,12.43577 -1.66463,11.06493 -1.37091,-1.3709 -4.259518,-6.51169 -4.700118,-8.22528 -2.79076,1.66463 -1.2819,15.06184 -0.0089,18.68485 -4.01474,-2.79069 -5.32779,-6.59177 -8.51013,-8.89286 0,0 -0.66769,9.68813 3.78772,13.11533 0,0 -2.22107,0.69138 -4.62003,-0.14094 -0.1959,2.64382 6.85438,13.07227 13.414958,13.41496 6.56065,0.34277 6.80543,-0.049 6.70751,-0.14688 z"
         inkscape:connector-curvature="0" />
    </g>
    <g
       id="fuel">
      <use
         xlink:href="#bar"
         id="bar:fuel"
         style="fill:#7c4e1a"
         transform="matrix(1.384264,0,0,1.384264,-203.8993,-558.8669)"
         x="0"
         y="0"
         width="100%"
         height="100%" />
      <text
         xml:space="preserve"
         style="font-style:normal;font-weight:normal;font-size:16px;line-height:1.25;font-family:sans-serif;letter-spacing:0px;word-spacing:0px;fill:#ffffff;fill-opacity:1;stroke:none;stroke-width:0.5;"
         x="61.25"
         y="172.99998"
         id="text3724"><tspan
           sodipodi:role="line"
           id="tspan3722"
           x="61.25"
           y="172.99998"
           style="stroke-width:0.5;font-size:16px;fill:#ffffff;">PYTHON</tspan></text>
    </g>
    <g
       id="heat">
      <use
         xlink:href="#bar"
         id="bar:heat"
         style="fill:#e34a30"
         transform="matrix(0.690448,1.19589,1.19589,-0.690448,-642.6477,204.3012)"
         x="0"
         y="0"
         width="100%"
         height="100%" />
      <text
         xml:space="preserve"
         style="font-style:normal;font-weight:normal;font-size:16px;line-height:1.25;font-family:sans-serif;letter-spacing:0px;word-spacing:0px;fill:#ffffff;fill-opacity:1;stroke:none;stroke-width:0.5"
         x="117.30155"
         y="-60.767872"
         id="text3716"
         transform="rotate(60)"><tspan
           sodipodi:role="line"
           id="tspan3714"
           x="117.30155"
           y="-60.767872"
           style="font-size:16px;fill:#ffffff;stroke-width:0.5">PANDAS</tspan></text>
    </g>
    <g
       id="oxygen">
      <use
         xlink:href="#bar"
         id="bar:oxygen"
         style="fill:#588dd4"
         transform="matrix(-0.690448,1.19589,-1.19589,-0.690448,842.6477,204.3012)"
         x="0"
         y="0"
         width="100%"
         height="100%" />
      <text
         xml:space="preserve"
         style="font-style:normal;font-weight:normal;font-size:16px;line-height:1.25;font-family:sans-serif;letter-spacing:0px;word-spacing:0px;fill:#ffffff;fill-opacity:1;stroke:none;stroke-width:0.5"
         x="-89.067413"
         y="112.02189"
         id="text3720"
         transform="rotate(-60)"
         inkscape:transform-center-x="-6.5"
         inkscape:transform-center-y="5"><tspan
           sodipodi:role="line"
           id="tspan3718"
           x="-89.067413"
           y="112.02189"
           style="font-size:16px;fill:#ffffff;stroke-width:0.5">JUPYTER</tspan></text>
    </g>
  </g>
</svg>
