<?xml version="1.0" encoding="UTF-8" standalone="no"?>
<svg
   xmlns:dc="http://purl.org/dc/elements/1.1/"
   xmlns:cc="http://creativecommons.org/ns#"
   xmlns:rdf="http://www.w3.org/1999/02/22-rdf-syntax-ns#"
   xmlns:svg="http://www.w3.org/2000/svg"
   xmlns="http://www.w3.org/2000/svg"
   xmlns:xlink="http://www.w3.org/1999/xlink"
   xmlns:sodipodi="http://sodipodi.sourceforge.net/DTD/sodipodi-0.dtd"
   xmlns:inkscape="http://www.inkscape.org/namespaces/inkscape"
   id="svg17"
   width="395"
   height="370"
   y="-300"
   x="-300"
   version="1.1"
   sodipodi:docname="Fire_triangle2.svg"
   inkscape:version="0.92.1 r15371">
  <metadata
     id="metadata21">
    <rdf:RDF>
      <cc:Work
         rdf:about="">
        <dc:format>image/svg+xml</dc:format>
        <dc:type
           rdf:resource="http://purl.org/dc/dcmitype/StillImage" />
        <dc:title></dc:title>
      </cc:Work>
    </rdf:RDF>
  </metadata>
  <sodipodi:namedview
     pagecolor="#ffffff"
     bordercolor="#666666"
     borderopacity="1"
     objecttolerance="10"
     gridtolerance="10"
     guidetolerance="10"
     inkscape:pageopacity="0"
     inkscape:pageshadow="2"
     inkscape:window-width="1052"
     inkscape:window-height="728"
     id="namedview19"
     showgrid="false"
     showguides="true"
     inkscape:guide-bbox="true"
     inkscape:zoom="0.5"
     inkscape:cx="-41.525424"
     inkscape:cy="85"
     inkscape:window-x="0"
     inkscape:window-y="27"
     inkscape:window-maximized="0"
     inkscape:current-layer="svg17">
    <sodipodi:guide
       position="180.08475,-69.872881"
       orientation="0,1"
       id="guide23"
       inkscape:locked="false" />
  </sodipodi:namedview>
  <defs
     id="defs">
    <path
       id="bar"
       style="stroke:none;fill-opacity:1"
       d="M 284.12572,532.21731 L 154.95134,532.21731 L           180.36807,517.54302 L 258.70900,517.54302 L 284.12572,532.21731           z " />
  </defs>
  <g
     id="Fire triangle"
     transform="matrix(2,0,0,2,-20,-50)">
    <g
       id="fire">
      <path
         id="fire:red"
         style="fill:#a90000;stroke:none"
         d="m 94.98592,160.42147 v 0 c -9.373888,0.33121 -21.128808,-5.64205 -21.531288,-19.45496 -0.31365,-10.76297 -5.27748,-15.1516 -5.27748,-15.1516 7.68573,-0.89527 7.38783,4.32983 9.44892,4.30335 0,0 1.83297,-9.08742 -1.78667,-13.35738 7.046,-0.81638 7.9897,7.47421 8.98655,5.67997 0.08262,-2.20057 1.51603,-11.95803 -3.30659,-18.08221 0,0 4.02447,0.0599 10.48366,6.53049 -0.75275,-3.89023 -1.37285,-11.63058 5.589768,-22.47575 0.12921,3.71928 1.0118,11.65079 3.87881,16.78971 3.48644,6.24912 0.67811,13.63183 3.50139,13.93084 2.26042,0.23941 4.08314,-11.57598 4.49515,-14.93677 2.57832,0.26001 1.11454,19.5284 3.56583,20.65493 2.02655,0.93149 4.32242,-6.78752 5.58593,-9.99847 0.63498,-1.61364 2.7614,13.03659 -0.59548,18.51791 -2.35727,3.8491 5.34532,-3.22679 11.74472,-2.85462 -3.14895,1.89585 -5.96749,7.79658 -7.25977,17.11875 -0.61817,4.45988 -8.66396,13.17079 -19.1654,12.88359 -5.1254,-0.1402 -7.76004,0.10152 -8.35805,-0.0978 z"
         inkscape:connector-curvature="0" />
      <path
         id="fire:yellow"
         style="fill:#efc517;stroke:none"
         d="m 101.65545,160.68084 c 1.76256,-0.14685 11.45659,-5.18973 10.67323,-12.53367 0,0 -2.39898,1.86047 -5.18975,1.17501 1.46882,-2.44802 7.53984,-11.8483 4.60228,-15.03065 0,0 -5.8752,7.93149 -6.75647,6.60954 -0.88127,-1.32189 1.71359,-12.09309 0.24477,-14.05146 0,0 -3.13338,7.73565 -4.1616,7.09915 -1.7136,-1.02814 -3.28026,-10.86913 -3.81884,-12.14203 0,0 -0.29373,12.43577 -1.66463,11.06493 -1.37091,-1.3709 -4.259518,-6.51169 -4.700118,-8.22528 -2.79076,1.66463 -1.2819,15.06184 -0.0089,18.68485 -4.01474,-2.79069 -5.32779,-6.59177 -8.51013,-8.89286 0,0 -0.66769,9.68813 3.78772,13.11533 0,0 -2.22107,0.69138 -4.62003,-0.14094 -0.1959,2.64382 6.85438,13.07227 13.414958,13.41496 6.56065,0.34277 6.80543,-0.049 6.70751,-0.14688 z"
         inkscape:connector-curvature="0" />
    </g>
    <g
       id="fuel">
      <use
         xlink:href="#bar"
         id="bar:fuel"
         style="fill:#7c4e1a"
         transform="matrix(1.384264,0,0,1.384264,-203.8993,-558.8669)"
         x="0"
         y="0"
         width="100%"
         height="100%" />
      <path
         style="fill:#ffffff"
         d="m 81.142186,162.31054 h 7.236562 v 2.0268 h -4.555064 v 1.93625 h 4.283432 v 2.02679 h -4.283432 v 4.4088 h -2.681498 v -10.39864 m 9.750902,0 h 2.681498 v 6.23361 c -4e-6,0.85902 0.139294,1.47425 0.417896,1.84571 0.283236,0.36682 0.74292,0.55023 1.379056,0.55023 0.640767,0 1.100452,-0.18341 1.379056,-0.55023 0.283233,-0.37146 0.424853,-0.98669 0.424861,-1.84571 v -6.23361 h 2.681498 v 6.23361 c -1.1e-5,1.47193 -0.369152,2.56774 -1.107424,3.28745 -0.738291,0.71971 -1.864287,1.07957 -3.377991,1.07957 -1.509073,0 -2.632747,-0.35986 -3.371026,-1.07957 -0.738284,-0.71971 -1.107425,-1.81552 -1.107424,-3.28745 v -6.23361 m 11.589642,0 h 7.23656 v 2.0268 h -4.55506 v 1.93625 h 4.28343 v 2.02679 h -4.28343 v 2.38201 h 4.70829 v 2.02679 h -7.38979 v -10.39864 m 9.7509,0 h 2.6815 v 8.37185 h 4.70829 v 2.02679 h -7.38979 v -10.39864"
         id="text:fuel"
         inkscape:connector-curvature="0" />
    </g>
    <g
       id="heat">
      <use
         xlink:href="#bar"
         id="bar:heat"
         style="fill:#e34a30"
         transform="matrix(0.690448,1.19589,1.19589,-0.690448,-642.6477,204.3012)"
         x="0"
         y="0"
         width="100%"
         height="100%" />
      <path
         transform="rotate(59.999988)"
         style="fill:#ffffff"
         d="m 138.7867,-71.304375 h 2.6815 v 3.963045 h 3.95608 v -3.963045 h 2.6815 v 10.39864 h -2.6815 v -4.408801 h -3.95608 v 4.408801 h -2.6815 v -10.39864 m 11.92396,0 h 7.23656 v 2.026794 h -4.55506 v 1.936251 h 4.28343 v 2.026794 h -4.28343 v 2.382006 h 4.70829 v 2.026795 h -7.38979 v -10.39864 m 16.06113,8.504179 h -4.19289 l -0.66167,1.894461 h -2.69542 l 3.8516,-10.39864 h 3.19691 l 3.8516,10.39864 h -2.69543 l -0.6547,-1.894461 m -3.52425,-1.929286 h 2.84865 l -1.42084,-4.137168 -1.42781,4.137168 m 7.00671,-6.574893 h 9.58375 v 2.026794 h -3.44764 v 8.371846 h -2.6815 v -8.371846 h -3.45461 v -2.026794"
         id="text:heat"
         inkscape:connector-curvature="0" />
    </g>
    <g
       id="oxygen">
      <use
         xlink:href="#bar"
         id="bar:oxygen"
         style="fill:#588dd4"
         transform="matrix(-0.690448,1.19589,-1.19589,-0.690448,842.6477,204.3012)"
         x="0"
         y="0"
         width="100%"
         height="100%" />
      <path
         transform="rotate(-59.999988)"
         style="fill:#ffffff"
         d="m -85.545293,103.64488 c -0.817224,1e-5 -1.451032,0.30182 -1.901426,0.90544 -0.450402,0.60364 -0.675602,1.45336 -0.675598,2.54917 -4e-6,1.09117 0.225196,1.93857 0.675598,2.5422 0.450394,0.60363 1.084202,0.90544 1.901426,0.90544 0.821855,0 1.457984,-0.30181 1.908391,-0.90544 0.45039,-0.60363 0.675589,-1.45103 0.675598,-2.5422 -9e-6,-1.09581 -0.225208,-1.94553 -0.675598,-2.54917 -0.450407,-0.60362 -1.086536,-0.90543 -1.908391,-0.90544 m 0,-1.94321 c 1.671575,1e-5 2.980981,0.47827 3.92822,1.43477 0.94722,0.95653 1.420835,2.27754 1.420846,3.96305 -1.1e-5,1.68087 -0.473626,2.99956 -1.420846,3.95608 -0.947239,0.95652 -2.256645,1.43477 -3.92822,1.43477 -1.666944,0 -2.97635,-0.47825 -3.928221,-1.43477 -0.947231,-0.95652 -1.420846,-2.27521 -1.420845,-3.95608 -1e-6,-1.68551 0.473614,-3.00652 1.420845,-3.96305 0.951871,-0.9565 2.261277,-1.43476 3.928221,-1.43477 m 13.163717,5.27941 3.607834,5.30728 h -2.792937 l -2.430761,-3.55211 -2.409866,3.55211 h -2.806866 l 3.607833,-5.30728 -3.468535,-5.09136 h 2.799902 l 2.277532,3.35013 2.270567,-3.35013 h 2.813832 l -3.468535,5.09136 m 3.761061,-5.09136 h 2.932235 l 2.368077,3.70534 2.368076,-3.70534 h 2.9392 l -3.963045,6.0177 v 4.38094 h -2.681498 v -4.38094 l -3.963045,-6.0177 m 21.103739,9.62553 c -0.668643,0.32503 -1.362814,0.56881 -2.082514,0.73132 -0.719717,0.16252 -1.462642,0.24377 -2.228777,0.24377 -1.731951,0 -3.104041,-0.4829 -4.116274,-1.4487 -1.012238,-0.97045 -1.518355,-2.2845 -1.518355,-3.94215 0,-1.67622 0.515404,-2.99491 1.546215,-3.95608 1.030806,-0.96115 2.442364,-1.44173 4.234677,-1.44174 0.691843,1e-5 1.35351,0.065 1.985005,0.19502 0.636121,0.13002 1.235105,0.32271 1.796952,0.57808 v 2.15217 c -0.580421,-0.32967 -1.158509,-0.57576 -1.734268,-0.73828 -0.571132,-0.16251 -1.144577,-0.24377 -1.720337,-0.24378 -1.067962,1e-5 -1.892144,0.2995 -2.47255,0.89848 -0.575772,0.59435 -0.863655,1.44639 -0.863652,2.55613 -3e-6,1.10046 0.278594,1.95018 0.835792,2.54916 0.557189,0.59899 1.348869,0.89848 2.375041,0.89848 0.27859,0 0.536292,-0.0162 0.773107,-0.0488 0.241443,-0.0371 0.457356,-0.0929 0.647739,-0.16715 v -2.01983 h -1.636759 v -1.79696 h 4.178958 v 5.00082 m 2.354145,-9.62553 h 7.236562 v 2.02679 h -4.555064 v 1.93626 h 4.283431 v 2.02679 h -4.283431 v 2.38201 h 4.708292 v 2.02679 h -7.38979 v -10.39864 m 9.750904,0 h 2.994919 l 3.781957,7.13209 v -7.13209 h 2.5422 v 10.39864 h -2.99492 l -3.781957,-7.13209 v 7.13209 h -2.542199 v -10.39864"
         id="text:oxygen"
         inkscape:connector-curvature="0" />
    </g>
  </g>
</svg>
